{
	"asset":{
		"generator":"Khronos glTF Blender I/O v4.4.55",
		"version":"2.0"
	},
	"extensionsUsed":[
		"KHR_materials_specular"
	],
	"scene":0,
	"scenes":[
		{
			"name":"Scene",
			"nodes":[
				1
			]
		}
	],
	"nodes":[
		{
			"mesh":0,
			"name":"bag"
		},
		{
			"children":[
				0
			],
			"name":"bag_28",
			"rotation":[
				0,
				0.29800504446029663,
				0,
				0.9545643329620361
			],
			"translation":[
				0.30124741792678833,
				0.02996312640607357,
				-0.3761032819747925
			]
		}
	],
	"materials":[
		{
			"doubleSided":true,
			"emissiveFactor":[
				0.3504772484302521,
				0.3504772484302521,
				0.3504772484302521
			],
			"extensions":{
				"KHR_materials_specular":{
					"specularFactor":0.4007631242275238
				}
			},
			"name":"lpb_gradient.008",
			"pbrMetallicRoughness":{
				"baseColorTexture":{
					"index":0
				},
				"metallicFactor":0,
				"roughnessFactor":0.7420974969863892
			}
		}
	],
	"meshes":[
		{
			"name":"Object_28.002",
			"primitives":[
				{
					"attributes":{
						"POSITION":0,
						"NORMAL":1,
						"TEXCOORD_0":2,
						"TEXCOORD_1":3
					},
					"indices":4,
					"material":0
				}
			]
		}
	],
	"textures":[
		{
			"sampler":0,
			"source":0
		}
	],
	"images":[
		{
			"mimeType":"image/png",
			"name":"lpb_gradient_baseColor2",
			"uri":"lpb_gradient_baseColor2.png"
		}
	],
	"accessors":[
		{
			"bufferView":0,
			"componentType":5126,
			"count":1935,
			"max":[
				0.3671616017818451,
				0.5745371580123901,
				0.22338029742240906
			],
			"min":[
				-0.37441596388816833,
				0,
				-0.26059073209762573
			],
			"type":"VEC3"
		},
		{
			"bufferView":1,
			"componentType":5126,
			"count":1935,
			"type":"VEC3"
		},
		{
			"bufferView":2,
			"componentType":5126,
			"count":1935,
			"type":"VEC2"
		},
		{
			"bufferView":3,
			"componentType":5126,
			"count":1935,
			"type":"VEC2"
		},
		{
			"bufferView":4,
			"componentType":5123,
			"count":9168,
			"type":"SCALAR"
		}
	],
	"bufferViews":[
		{
			"buffer":0,
			"byteLength":23220,
			"byteOffset":0,
			"target":34962
		},
		{
			"buffer":0,
			"byteLength":23220,
			"byteOffset":23220,
			"target":34962
		},
		{
			"buffer":0,
			"byteLength":15480,
			"byteOffset":46440,
			"target":34962
		},
		{
			"buffer":0,
			"byteLength":15480,
			"byteOffset":61920,
			"target":34962
		},
		{
			"buffer":0,
			"byteLength":18336,
			"byteOffset":77400,
			"target":34963
		}
	],
	"samplers":[
		{
			"magFilter":9729,
			"minFilter":9987
		}
	],
	"buffers":[
		{
			"byteLength":95736,
			"uri":"bag.bin"
		}
	]
}
