{
	"asset":{
		"generator":"Khronos glTF Blender I/O v4.4.55",
		"version":"2.0"
	},
	"extensionsUsed":[
		"KHR_materials_specular"
	],
	"scene":0,
	"scenes":[
		{
			"name":"Scene",
			"nodes":[
				1
			]
		}
	],
	"nodes":[
		{
			"mesh":0,
			"name":"Object_64.001"
		},
		{
			"children":[
				0
			],
			"name":"book029_30",
			"rotation":[
				-0.6926706433296204,
				0.6926705837249756,
				-0.14215286076068878,
				0.14215286076068878
			],
			"translation":[
				0.24915975332260132,
				0.14383219182491302,
				0.03718559816479683
			]
		}
	],
	"materials":[
		{
			"doubleSided":true,
			"emissiveFactor":[
				0.3504772484302521,
				0.3504772484302521,
				0.3504772484302521
			],
			"extensions":{
				"KHR_materials_specular":{
					"specularFactor":0.4007631242275238
				}
			},
			"name":"lpb_gradient.002",
			"pbrMetallicRoughness":{
				"baseColorTexture":{
					"index":0
				},
				"metallicFactor":0,
				"roughnessFactor":0.7420974969863892
			}
		}
	],
	"meshes":[
		{
			"name":"Object_30",
			"primitives":[
				{
					"attributes":{
						"POSITION":0,
						"NORMAL":1,
						"TEXCOORD_0":2,
						"TEXCOORD_1":3
					},
					"indices":4,
					"material":0
				}
			]
		}
	],
	"textures":[
		{
			"sampler":0,
			"source":0
		}
	],
	"images":[
		{
			"mimeType":"image/png",
			"name":"lpb_gradient_baseColor2",
			"uri":"lpb_gradient_baseColor2.png"
		}
	],
	"accessors":[
		{
			"bufferView":0,
			"componentType":5126,
			"count":264,
			"max":[
				0.03326445072889328,
				0.1070108562707901,
				0.09838917851448059
			],
			"min":[
				-0.03326445072889328,
				-0.1070108562707901,
				-0.09838917851448059
			],
			"type":"VEC3"
		},
		{
			"bufferView":1,
			"componentType":5126,
			"count":264,
			"type":"VEC3"
		},
		{
			"bufferView":2,
			"componentType":5126,
			"count":264,
			"type":"VEC2"
		},
		{
			"bufferView":3,
			"componentType":5126,
			"count":264,
			"type":"VEC2"
		},
		{
			"bufferView":4,
			"componentType":5123,
			"count":708,
			"type":"SCALAR"
		}
	],
	"bufferViews":[
		{
			"buffer":0,
			"byteLength":3168,
			"byteOffset":0,
			"target":34962
		},
		{
			"buffer":0,
			"byteLength":3168,
			"byteOffset":3168,
			"target":34962
		},
		{
			"buffer":0,
			"byteLength":2112,
			"byteOffset":6336,
			"target":34962
		},
		{
			"buffer":0,
			"byteLength":2112,
			"byteOffset":8448,
			"target":34962
		},
		{
			"buffer":0,
			"byteLength":1416,
			"byteOffset":10560,
			"target":34963
		}
	],
	"samplers":[
		{
			"magFilter":9729,
			"minFilter":9987
		}
	],
	"buffers":[
		{
			"byteLength":11976,
			"uri":"book3.bin"
		}
	]
}
