{
	"asset":{
		"generator":"Khronos glTF Blender I/O v4.4.55",
		"version":"2.0"
	},
	"extensionsUsed":[
		"KHR_materials_specular"
	],
	"scene":0,
	"scenes":[
		{
			"name":"Scene",
			"nodes":[
				1
			]
		}
	],
	"nodes":[
		{
			"mesh":0,
			"name":"chair"
		},
		{
			"children":[
				0
			],
			"name":"desk_chair.001_45",
			"translation":[
				1.117316484451294,
				0,
				-1.1033775806427002
			]
		}
	],
	"materials":[
		{
			"doubleSided":true,
			"emissiveFactor":[
				0.3504772484302521,
				0.3504772484302521,
				0.3504772484302521
			],
			"extensions":{
				"KHR_materials_specular":{
					"specularFactor":0.4007631242275238
				}
			},
			"name":"lpb_gradient.027",
			"pbrMetallicRoughness":{
				"baseColorTexture":{
					"index":0
				},
				"metallicFactor":0,
				"roughnessFactor":0.7420974969863892
			}
		}
	],
	"meshes":[
		{
			"name":"chair",
			"primitives":[
				{
					"attributes":{
						"POSITION":0,
						"NORMAL":1,
						"TEXCOORD_0":2,
						"TEXCOORD_1":3
					},
					"indices":4,
					"material":0
				}
			]
		}
	],
	"textures":[
		{
			"sampler":0,
			"source":0
		}
	],
	"images":[
		{
			"mimeType":"image/png",
			"name":"lpb_gradient_baseColor2",
			"uri":"lpb_gradient_baseColor2.png"
		}
	],
	"accessors":[
		{
			"bufferView":0,
			"componentType":5126,
			"count":724,
			"max":[
				0.2119431346654892,
				0.4531054198741913,
				0.211943119764328
			],
			"min":[
				-0.2119431048631668,
				0,
				-0.211943119764328
			],
			"type":"VEC3"
		},
		{
			"bufferView":1,
			"componentType":5126,
			"count":724,
			"type":"VEC3"
		},
		{
			"bufferView":2,
			"componentType":5126,
			"count":724,
			"type":"VEC2"
		},
		{
			"bufferView":3,
			"componentType":5126,
			"count":724,
			"type":"VEC2"
		},
		{
			"bufferView":4,
			"componentType":5123,
			"count":3492,
			"type":"SCALAR"
		}
	],
	"bufferViews":[
		{
			"buffer":0,
			"byteLength":8688,
			"byteOffset":0,
			"target":34962
		},
		{
			"buffer":0,
			"byteLength":8688,
			"byteOffset":8688,
			"target":34962
		},
		{
			"buffer":0,
			"byteLength":5792,
			"byteOffset":17376,
			"target":34962
		},
		{
			"buffer":0,
			"byteLength":5792,
			"byteOffset":23168,
			"target":34962
		},
		{
			"buffer":0,
			"byteLength":6984,
			"byteOffset":28960,
			"target":34963
		}
	],
	"samplers":[
		{
			"magFilter":9729,
			"minFilter":9987
		}
	],
	"buffers":[
		{
			"byteLength":35944,
			"uri":"chair.bin"
		}
	]
}
