{
	"asset":{
		"generator":"Khronos glTF Blender I/O v4.4.55",
		"version":"2.0"
	},
	"extensionsUsed":[
		"KHR_materials_specular"
	],
	"scene":0,
	"scenes":[
		{
			"name":"Scene",
			"nodes":[
				1
			]
		}
	],
	"nodes":[
		{
			"mesh":0,
			"name":"console"
		},
		{
			"children":[
				0
			],
			"name":"console_12",
			"rotation":[
				0,
				0.06022774428129196,
				0,
				0.9981846809387207
			],
			"translation":[
				0.5509771704673767,
				0.8032473921775818,
				-1.5305742025375366
			]
		}
	],
	"materials":[
		{
			"doubleSided":true,
			"emissiveFactor":[
				0.3504772484302521,
				0.3504772484302521,
				0.3504772484302521
			],
			"extensions":{
				"KHR_materials_specular":{
					"specularFactor":0.4007631242275238
				}
			},
			"name":"lpb_gradient.026",
			"pbrMetallicRoughness":{
				"baseColorTexture":{
					"index":0
				},
				"metallicFactor":0,
				"roughnessFactor":0.7420974969863892
			}
		}
	],
	"meshes":[
		{
			"name":"Object_12.002",
			"primitives":[
				{
					"attributes":{
						"POSITION":0,
						"NORMAL":1,
						"TEXCOORD_0":2,
						"TEXCOORD_1":3
					},
					"indices":4,
					"material":0
				}
			]
		}
	],
	"textures":[
		{
			"sampler":0,
			"source":0
		}
	],
	"images":[
		{
			"mimeType":"image/png",
			"name":"lpb_gradient_baseColor2",
			"uri":"lpb_gradient_baseColor2.png"
		}
	],
	"accessors":[
		{
			"bufferView":0,
			"componentType":5126,
			"count":846,
			"max":[
				0.17192865908145905,
				0.032776229083538055,
				0.06508056074380875
			],
			"min":[
				-0.17192865908145905,
				-9.313225746154785e-10,
				-0.06508056074380875
			],
			"type":"VEC3"
		},
		{
			"bufferView":1,
			"componentType":5126,
			"count":846,
			"type":"VEC3"
		},
		{
			"bufferView":2,
			"componentType":5126,
			"count":846,
			"type":"VEC2"
		},
		{
			"bufferView":3,
			"componentType":5126,
			"count":846,
			"type":"VEC2"
		},
		{
			"bufferView":4,
			"componentType":5123,
			"count":4824,
			"type":"SCALAR"
		}
	],
	"bufferViews":[
		{
			"buffer":0,
			"byteLength":10152,
			"byteOffset":0,
			"target":34962
		},
		{
			"buffer":0,
			"byteLength":10152,
			"byteOffset":10152,
			"target":34962
		},
		{
			"buffer":0,
			"byteLength":6768,
			"byteOffset":20304,
			"target":34962
		},
		{
			"buffer":0,
			"byteLength":6768,
			"byteOffset":27072,
			"target":34962
		},
		{
			"buffer":0,
			"byteLength":9648,
			"byteOffset":33840,
			"target":34963
		}
	],
	"samplers":[
		{
			"magFilter":9729,
			"minFilter":9987
		}
	],
	"buffers":[
		{
			"byteLength":43488,
			"uri":"console.bin"
		}
	]
}
