{
	"asset":{
		"generator":"Khronos glTF Blender I/O v4.4.55",
		"version":"2.0"
	},
	"extensionsUsed":[
		"KHR_materials_specular"
	],
	"scene":0,
	"scenes":[
		{
			"name":"Scene",
			"nodes":[
				1,
				3,
				5,
				7
			]
		}
	],
	"nodes":[
		{
			"mesh":0,
			"name":"frame1"
		},
		{
			"children":[
				0
			],
			"name":"frame.002_50",
			"scale":[
				0.39136308431625366,
				0.39136308431625366,
				0.39136308431625366
			],
			"translation":[
				0.20378750562667847,
				1.0818713903427124,
				-1.8715174198150635
			]
		},
		{
			"mesh":1,
			"name":"frame2"
		},
		{
			"children":[
				2
			],
			"name":"frame.003_51",
			"scale":[
				0.39136308431625366,
				0.39136308431625366,
				0.39136308431625366
			],
			"translation":[
				-0.01953844726085663,
				1.5197653770446777,
				-1.8715174198150635
			]
		},
		{
			"mesh":2,
			"name":"frame3"
		},
		{
			"children":[
				4
			],
			"name":"frame.004_61",
			"scale":[
				0.39136308431625366,
				0.39136308431625366,
				0.39136308431625366
			],
			"translation":[
				-0.3960610330104828,
				1.0818713903427124,
				-1.8715174198150635
			]
		},
		{
			"mesh":3,
			"name":"frame4"
		},
		{
			"children":[
				6
			],
			"name":"frame.005_62",
			"scale":[
				0.39136308431625366,
				0.39136308431625366,
				0.39136308431625366
			],
			"translation":[
				-0.6193870306015015,
				1.5197653770446777,
				-1.8715174198150635
			]
		}
	],
	"materials":[
		{
			"doubleSided":true,
			"emissiveFactor":[
				0.3504772484302521,
				0.3504772484302521,
				0.3504772484302521
			],
			"extensions":{
				"KHR_materials_specular":{
					"specularFactor":0.4007631242275238
				}
			},
			"name":"lpb_gradient.034",
			"pbrMetallicRoughness":{
				"baseColorTexture":{
					"index":0
				},
				"metallicFactor":0,
				"roughnessFactor":0.7420974969863892
			}
		}
	],
	"meshes":[
		{
			"name":"frame1",
			"primitives":[
				{
					"attributes":{
						"POSITION":0,
						"NORMAL":1,
						"TEXCOORD_0":2,
						"TEXCOORD_1":3
					},
					"indices":4,
					"material":0
				}
			]
		},
		{
			"name":"frame2",
			"primitives":[
				{
					"attributes":{
						"POSITION":5,
						"NORMAL":6,
						"TEXCOORD_0":7,
						"TEXCOORD_1":8
					},
					"indices":4,
					"material":0
				}
			]
		},
		{
			"name":"frame3",
			"primitives":[
				{
					"attributes":{
						"POSITION":9,
						"NORMAL":10,
						"TEXCOORD_0":11,
						"TEXCOORD_1":12
					},
					"indices":4,
					"material":0
				}
			]
		},
		{
			"name":"frame4",
			"primitives":[
				{
					"attributes":{
						"POSITION":13,
						"NORMAL":14,
						"TEXCOORD_0":15,
						"TEXCOORD_1":16
					},
					"indices":4,
					"material":0
				}
			]
		}
	],
	"textures":[
		{
			"sampler":0,
			"source":0
		}
	],
	"images":[
		{
			"mimeType":"image/png",
			"name":"lpb_gradient_baseColor2",
			"uri":"lpb_gradient_baseColor2.png"
		}
	],
	"accessors":[
		{
			"bufferView":0,
			"componentType":5126,
			"count":218,
			"max":[
				0.3499999940395355,
				1,
				0.07771829515695572
			],
			"min":[
				-0.3499999940395355,
				0,
				-0.07771829515695572
			],
			"type":"VEC3"
		},
		{
			"bufferView":1,
			"componentType":5126,
			"count":218,
			"type":"VEC3"
		},
		{
			"bufferView":2,
			"componentType":5126,
			"count":218,
			"type":"VEC2"
		},
		{
			"bufferView":3,
			"componentType":5126,
			"count":218,
			"type":"VEC2"
		},
		{
			"bufferView":4,
			"componentType":5123,
			"count":1104,
			"type":"SCALAR"
		},
		{
			"bufferView":5,
			"componentType":5126,
			"count":218,
			"max":[
				0.3499999940395355,
				1,
				0.07771829515695572
			],
			"min":[
				-0.3499999940395355,
				0,
				-0.07771829515695572
			],
			"type":"VEC3"
		},
		{
			"bufferView":6,
			"componentType":5126,
			"count":218,
			"type":"VEC3"
		},
		{
			"bufferView":7,
			"componentType":5126,
			"count":218,
			"type":"VEC2"
		},
		{
			"bufferView":8,
			"componentType":5126,
			"count":218,
			"type":"VEC2"
		},
		{
			"bufferView":9,
			"componentType":5126,
			"count":218,
			"max":[
				0.3499999940395355,
				1,
				0.07771829515695572
			],
			"min":[
				-0.3499999940395355,
				0,
				-0.07771829515695572
			],
			"type":"VEC3"
		},
		{
			"bufferView":10,
			"componentType":5126,
			"count":218,
			"type":"VEC3"
		},
		{
			"bufferView":11,
			"componentType":5126,
			"count":218,
			"type":"VEC2"
		},
		{
			"bufferView":12,
			"componentType":5126,
			"count":218,
			"type":"VEC2"
		},
		{
			"bufferView":13,
			"componentType":5126,
			"count":218,
			"max":[
				0.3499999940395355,
				1,
				0.07771829515695572
			],
			"min":[
				-0.3499999940395355,
				0,
				-0.07771829515695572
			],
			"type":"VEC3"
		},
		{
			"bufferView":14,
			"componentType":5126,
			"count":218,
			"type":"VEC3"
		},
		{
			"bufferView":15,
			"componentType":5126,
			"count":218,
			"type":"VEC2"
		},
		{
			"bufferView":16,
			"componentType":5126,
			"count":218,
			"type":"VEC2"
		}
	],
	"bufferViews":[
		{
			"buffer":0,
			"byteLength":2616,
			"byteOffset":0,
			"target":34962
		},
		{
			"buffer":0,
			"byteLength":2616,
			"byteOffset":2616,
			"target":34962
		},
		{
			"buffer":0,
			"byteLength":1744,
			"byteOffset":5232,
			"target":34962
		},
		{
			"buffer":0,
			"byteLength":1744,
			"byteOffset":6976,
			"target":34962
		},
		{
			"buffer":0,
			"byteLength":2208,
			"byteOffset":8720,
			"target":34963
		},
		{
			"buffer":0,
			"byteLength":2616,
			"byteOffset":10928,
			"target":34962
		},
		{
			"buffer":0,
			"byteLength":2616,
			"byteOffset":13544,
			"target":34962
		},
		{
			"buffer":0,
			"byteLength":1744,
			"byteOffset":16160,
			"target":34962
		},
		{
			"buffer":0,
			"byteLength":1744,
			"byteOffset":17904,
			"target":34962
		},
		{
			"buffer":0,
			"byteLength":2616,
			"byteOffset":19648,
			"target":34962
		},
		{
			"buffer":0,
			"byteLength":2616,
			"byteOffset":22264,
			"target":34962
		},
		{
			"buffer":0,
			"byteLength":1744,
			"byteOffset":24880,
			"target":34962
		},
		{
			"buffer":0,
			"byteLength":1744,
			"byteOffset":26624,
			"target":34962
		},
		{
			"buffer":0,
			"byteLength":2616,
			"byteOffset":28368,
			"target":34962
		},
		{
			"buffer":0,
			"byteLength":2616,
			"byteOffset":30984,
			"target":34962
		},
		{
			"buffer":0,
			"byteLength":1744,
			"byteOffset":33600,
			"target":34962
		},
		{
			"buffer":0,
			"byteLength":1744,
			"byteOffset":35344,
			"target":34962
		}
	],
	"samplers":[
		{
			"magFilter":9729,
			"minFilter":9987
		}
	],
	"buffers":[
		{
			"byteLength":37088,
			"uri":"frames.bin"
		}
	]
}
