{
	"asset":{
		"generator":"Khronos glTF Blender I/O v4.4.55",
		"version":"2.0"
	},
	"extensionsUsed":[
		"KHR_materials_specular"
	],
	"scene":0,
	"scenes":[
		{
			"name":"Scene",
			"nodes":[
				1
			]
		}
	],
	"nodes":[
		{
			"mesh":0,
			"name":"keyboard"
		},
		{
			"children":[
				0
			],
			"name":"computer_keyboard_7",
			"translation":[
				1.0415927171707153,
				0.9205050468444824,
				-1.5887892246246338
			]
		}
	],
	"materials":[
		{
			"doubleSided":true,
			"emissiveFactor":[
				0.3504772484302521,
				0.3504772484302521,
				0.3504772484302521
			],
			"extensions":{
				"KHR_materials_specular":{
					"specularFactor":0.4007631242275238
				}
			},
			"name":"lpb_gradient.024",
			"pbrMetallicRoughness":{
				"baseColorTexture":{
					"index":0
				},
				"metallicFactor":0,
				"roughnessFactor":0.7420974969863892
			}
		}
	],
	"meshes":[
		{
			"name":"Object_7.002",
			"primitives":[
				{
					"attributes":{
						"POSITION":0,
						"NORMAL":1,
						"TEXCOORD_0":2,
						"TEXCOORD_1":3
					},
					"indices":4,
					"material":0
				}
			]
		}
	],
	"textures":[
		{
			"sampler":0,
			"source":0
		}
	],
	"images":[
		{
			"mimeType":"image/png",
			"name":"lpb_gradient_baseColor",
			"uri":"lpb_gradient_baseColor.png"
		}
	],
	"accessors":[
		{
			"bufferView":0,
			"componentType":5126,
			"count":1561,
			"max":[
				0.17214882373809814,
				-0.07001837342977524,
				0.11029139161109924
			],
			"min":[
				-0.17214882373809814,
				-0.11029139161109924,
				-0.05885995551943779
			],
			"type":"VEC3"
		},
		{
			"bufferView":1,
			"componentType":5126,
			"count":1561,
			"type":"VEC3"
		},
		{
			"bufferView":2,
			"componentType":5126,
			"count":1561,
			"type":"VEC2"
		},
		{
			"bufferView":3,
			"componentType":5126,
			"count":1561,
			"type":"VEC2"
		},
		{
			"bufferView":4,
			"componentType":5123,
			"count":7488,
			"type":"SCALAR"
		}
	],
	"bufferViews":[
		{
			"buffer":0,
			"byteLength":18732,
			"byteOffset":0,
			"target":34962
		},
		{
			"buffer":0,
			"byteLength":18732,
			"byteOffset":18732,
			"target":34962
		},
		{
			"buffer":0,
			"byteLength":12488,
			"byteOffset":37464,
			"target":34962
		},
		{
			"buffer":0,
			"byteLength":12488,
			"byteOffset":49952,
			"target":34962
		},
		{
			"buffer":0,
			"byteLength":14976,
			"byteOffset":62440,
			"target":34963
		}
	],
	"samplers":[
		{
			"magFilter":9729,
			"minFilter":9987
		}
	],
	"buffers":[
		{
			"byteLength":77416,
			"uri":"keyboard.bin"
		}
	]
}
