{
	"asset":{
		"generator":"Khronos glTF Blender I/O v4.4.55",
		"version":"2.0"
	},
	"extensionsUsed":[
		"KHR_materials_specular"
	],
	"scene":0,
	"scenes":[
		{
			"name":"Scene",
			"nodes":[
				1
			]
		}
	],
	"nodes":[
		{
			"mesh":0,
			"name":"Object_14.001"
		},
		{
			"children":[
				0
			],
			"name":"computer_mousepad_5",
			"translation":[
				1.1133453845977783,
				0.8061379194259644,
				-1.592587947845459
			]
		}
	],
	"materials":[
		{
			"doubleSided":true,
			"emissiveFactor":[
				0.3504772484302521,
				0.3504772484302521,
				0.3504772484302521
			],
			"extensions":{
				"KHR_materials_specular":{
					"specularFactor":0.4007631242275238
				}
			},
			"name":"lpb_gradient",
			"pbrMetallicRoughness":{
				"metallicFactor":0,
				"roughnessFactor":0.7420974969863892
			}
		}
	],
	"meshes":[
		{
			"name":"Object_5",
			"primitives":[
				{
					"attributes":{
						"POSITION":0,
						"NORMAL":1,
						"TEXCOORD_0":2,
						"TEXCOORD_1":3
					},
					"indices":4,
					"material":0
				}
			]
		}
	],
	"accessors":[
		{
			"bufferView":0,
			"componentType":5126,
			"count":82,
			"max":[
				0.2749638259410858,
				0.00436604768037796,
				0.14367055892944336
			],
			"min":[
				-0.2749638259410858,
				-0.00436604768037796,
				-0.14367055892944336
			],
			"type":"VEC3"
		},
		{
			"bufferView":1,
			"componentType":5126,
			"count":82,
			"type":"VEC3"
		},
		{
			"bufferView":2,
			"componentType":5126,
			"count":82,
			"type":"VEC2"
		},
		{
			"bufferView":3,
			"componentType":5126,
			"count":82,
			"type":"VEC2"
		},
		{
			"bufferView":4,
			"componentType":5123,
			"count":480,
			"type":"SCALAR"
		}
	],
	"bufferViews":[
		{
			"buffer":0,
			"byteLength":984,
			"byteOffset":0,
			"target":34962
		},
		{
			"buffer":0,
			"byteLength":984,
			"byteOffset":984,
			"target":34962
		},
		{
			"buffer":0,
			"byteLength":656,
			"byteOffset":1968,
			"target":34962
		},
		{
			"buffer":0,
			"byteLength":656,
			"byteOffset":2624,
			"target":34962
		},
		{
			"buffer":0,
			"byteLength":960,
			"byteOffset":3280,
			"target":34963
		}
	],
	"buffers":[
		{
			"byteLength":4240,
			"uri":"mousepad.bin"
		}
	]
}
