{
	"asset":{
		"generator":"Khronos glTF Blender I/O v4.4.55",
		"version":"2.0"
	},
	"extensionsUsed":[
		"KHR_materials_specular"
	],
	"scene":0,
	"scenes":[
		{
			"name":"Scene",
			"nodes":[
				1
			]
		}
	],
	"nodes":[
		{
			"mesh":0,
			"name":"slipers"
		},
		{
			"children":[
				0
			],
			"name":"slipper_31",
			"translation":[
				-0.4666379690170288,
				0.03601108863949776,
				-0.9561706185340881
			]
		}
	],
	"materials":[
		{
			"doubleSided":true,
			"emissiveFactor":[
				0.3504772484302521,
				0.3504772484302521,
				0.3504772484302521
			],
			"extensions":{
				"KHR_materials_specular":{
					"specularFactor":0.4007631242275238
				}
			},
			"name":"lpb_gradient.033",
			"pbrMetallicRoughness":{
				"baseColorTexture":{
					"index":0
				},
				"metallicFactor":0,
				"roughnessFactor":0.7420974969863892
			}
		}
	],
	"meshes":[
		{
			"name":"slipers",
			"primitives":[
				{
					"attributes":{
						"POSITION":0,
						"NORMAL":1,
						"TEXCOORD_0":2,
						"TEXCOORD_1":3
					},
					"indices":4,
					"material":0
				}
			]
		}
	],
	"textures":[
		{
			"sampler":0,
			"source":0
		}
	],
	"images":[
		{
			"mimeType":"image/png",
			"name":"lpb_gradient_baseColor2",
			"uri":"lpb_gradient_baseColor2.png"
		}
	],
	"accessors":[
		{
			"bufferView":0,
			"componentType":5126,
			"count":1220,
			"max":[
				0.19940058887004852,
				0.09142521023750305,
				0.22276486456394196
			],
			"min":[
				-0.24972036480903625,
				-0.03646686673164368,
				-0.23336121439933777
			],
			"type":"VEC3"
		},
		{
			"bufferView":1,
			"componentType":5126,
			"count":1220,
			"type":"VEC3"
		},
		{
			"bufferView":2,
			"componentType":5126,
			"count":1220,
			"type":"VEC2"
		},
		{
			"bufferView":3,
			"componentType":5126,
			"count":1220,
			"type":"VEC2"
		},
		{
			"bufferView":4,
			"componentType":5123,
			"count":6336,
			"type":"SCALAR"
		}
	],
	"bufferViews":[
		{
			"buffer":0,
			"byteLength":14640,
			"byteOffset":0,
			"target":34962
		},
		{
			"buffer":0,
			"byteLength":14640,
			"byteOffset":14640,
			"target":34962
		},
		{
			"buffer":0,
			"byteLength":9760,
			"byteOffset":29280,
			"target":34962
		},
		{
			"buffer":0,
			"byteLength":9760,
			"byteOffset":39040,
			"target":34962
		},
		{
			"buffer":0,
			"byteLength":12672,
			"byteOffset":48800,
			"target":34963
		}
	],
	"samplers":[
		{
			"magFilter":9729,
			"minFilter":9987
		}
	],
	"buffers":[
		{
			"byteLength":61472,
			"uri":"slipers.bin"
		}
	]
}
